HIERARCHY
ROOT hip
{
  OFFSET 0.00112043 5.09927 -9.65472
  CHANNELS 6 Xposition Yposition Zposition Zrotation Xrotation Yrotation
  JOINT abdomen
  {
    OFFSET 0 -1.186 -1.5018
    CHANNELS 3 Zrotation Xrotation Yrotation
    JOINT abdomen2
    {
      OFFSET 0 9.964 0.2134
      CHANNELS 3 Zrotation Xrotation Yrotation
      JOINT chest
      {
        OFFSET 0 13.134 -3.2573
        CHANNELS 3 Zrotation Xrotation Yrotation
        JOINT neck
        {
          OFFSET 0 20.686 -1.6905
          CHANNELS 3 Zrotation Xrotation Yrotation
          JOINT head
          {
            OFFSET 0 7.238 -0.1237
            CHANNELS 3 Zrotation Xrotation Yrotation
            End Site
            {
              OFFSET 0 0 0
            }
          }
        }
        JOINT lCollar
        {
          OFFSET 1.7069 20.075 5.0056
          CHANNELS 3 Zrotation Xrotation Yrotation
          JOINT lShldr
          {
            OFFSET 13.6458 -0.047 -4.849
            CHANNELS 3 Zrotation Xrotation Yrotation
            JOINT lForeArm
            {
              OFFSET 28.3255 -0.9759 2.2888
              CHANNELS 3 Zrotation Xrotation Yrotation
              JOINT lHand
              {
                OFFSET 22.1583 -0.53 10.8316
                CHANNELS 3 Zrotation Xrotation Yrotation
                JOINT lThumb1
                {
                  OFFSET 0.786 0.112 2.5817
                  CHANNELS 3 Zrotation Xrotation Yrotation
                  JOINT lThumb2
                  {
                    OFFSET 0.3601 -0.878 4.2331
                    CHANNELS 3 Zrotation Xrotation Yrotation
                    JOINT lThumb2_End
                    {
                      OFFSET 1.8127 -1.216 2.2227
                      CHANNELS 3 Zrotation Xrotation Yrotation
                      End Site
                      {
                        OFFSET 0.0181 -0.0122 0.0222
                      }
                    }
                  }
                }
                JOINT lCarpal1
                {
                  OFFSET 0.9571 1.114 1.7695
                  CHANNELS 3 Zrotation Xrotation Yrotation
                  JOINT lIndex1
                  {
                    OFFSET 4.1246 0.487 4.1451
                    CHANNELS 3 Zrotation Xrotation Yrotation
                    JOINT lIndex2
                    {
                      OFFSET 3.4052 -1.454 2.7682
                      CHANNELS 3 Zrotation Xrotation Yrotation
                      JOINT lIndex2_End
                      {
                        OFFSET 1.4531 -1.795 1.2713
                        CHANNELS 3 Zrotation Xrotation Yrotation
                        End Site
                        {
                          OFFSET 0.0145 -0.0179 0.0127
                        }
                      }
                    }
                  }
                  JOINT lMid1
                  {
                    OFFSET 5.6954 0.21 2.1184
                    CHANNELS 3 Zrotation Xrotation Yrotation
                    JOINT lMid2
                    {
                      OFFSET 3.9766 -1.54 2.3863
                      CHANNELS 3 Zrotation Xrotation Yrotation
                      JOINT lMid2_End
                      {
                        OFFSET 1.4042 -1.926 1.125
                        CHANNELS 3 Zrotation Xrotation Yrotation
                        End Site
                        {
                          OFFSET 0.014 -0.0193 0.0113
                        }
                      }
                    }
                  }
                }
                JOINT lCarpal2
                {
                  OFFSET 2.0956 0.66 -0.3894
                  CHANNELS 3 Zrotation Xrotation Yrotation
                  JOINT lRing1
                  {
                    OFFSET 5.0395 -0.09 2.4971
                    CHANNELS 3 Zrotation Xrotation Yrotation
                    JOINT lRing2
                    {
                      OFFSET 3.7921 -1.552 1.4806
                      CHANNELS 3 Zrotation Xrotation Yrotation
                      JOINT lRing2_End
                      {
                        OFFSET 1.4655 -1.808 0.9609
                        CHANNELS 3 Zrotation Xrotation Yrotation
                        End Site
                        {
                          OFFSET 0.0147 -0.0181 0.0096
                        }
                      }
                    }
                  }
                  JOINT lPinky1
                  {
                    OFFSET 4.9141 -1.269 0.3591
                    CHANNELS 3 Zrotation Xrotation Yrotation
                    JOINT lPinky2
                    {
                      OFFSET 3.1477 -1.685 0.8462
                      CHANNELS 3 Zrotation Xrotation Yrotation
                      JOINT lPinky2_End
                      {
                        OFFSET 0.8055 -1.585 0.7955
                        CHANNELS 3 Zrotation Xrotation Yrotation
                        End Site
                        {
                          OFFSET 0.0081 -0.0158 0.008
                        }
                      }
                    }
                  }
                }
              }
            }
          }
        }
        JOINT rCollar
        {
          OFFSET -1.7069 20.075 5.0056
          CHANNELS 3 Zrotation Xrotation Yrotation
          JOINT rShldr
          {
            OFFSET -13.6458 -0.047 -4.849
            CHANNELS 3 Zrotation Xrotation Yrotation
            JOINT rForeArm
            {
              OFFSET -28.3255 -0.9759 2.2888
              CHANNELS 3 Zrotation Xrotation Yrotation
              JOINT rHand
              {
                OFFSET -22.1583 -0.53 10.8316
                CHANNELS 3 Zrotation Xrotation Yrotation
                JOINT rThumb1
                {
                  OFFSET -0.786 0.112 2.5817
                  CHANNELS 3 Zrotation Xrotation Yrotation
                  JOINT rThumb2
                  {
                    OFFSET -0.3601 -0.878 4.2331
                    CHANNELS 3 Zrotation Xrotation Yrotation
                    JOINT rThumb2_End
                    {
                      OFFSET -1.8127 -1.216 2.2227
                      CHANNELS 3 Zrotation Xrotation Yrotation
                      End Site
                      {
                        OFFSET -0.0181 -0.0122 0.0222
                      }
                    }
                  }
                }
                JOINT rCarpal1
                {
                  OFFSET -0.9571 1.114 1.7695
                  CHANNELS 3 Zrotation Xrotation Yrotation
                  JOINT rIndex1
                  {
                    OFFSET -4.1246 0.487 4.1451
                    CHANNELS 3 Zrotation Xrotation Yrotation
                    JOINT rIndex2
                    {
                      OFFSET -3.4052 -1.454 2.7682
                      CHANNELS 3 Zrotation Xrotation Yrotation
                      JOINT rIndex2_End
                      {
                        OFFSET -1.4531 -1.795 1.2713
                        CHANNELS 3 Zrotation Xrotation Yrotation
                        End Site
                        {
                          OFFSET -0.0145 -0.018 0.0127
                        }
                      }
                    }
                  }
                  JOINT rMid1
                  {
                    OFFSET -5.6954 0.21 2.1184
                    CHANNELS 3 Zrotation Xrotation Yrotation
                    JOINT rMid2
                    {
                      OFFSET -3.9766 -1.54 2.3863
                      CHANNELS 3 Zrotation Xrotation Yrotation
                      JOINT rMid2_End
                      {
                        OFFSET -1.4042 -1.926 1.125
                        CHANNELS 3 Zrotation Xrotation Yrotation
                        End Site
                        {
                          OFFSET -0.014 -0.0193 0.0113
                        }
                      }
                    }
                  }
                }
                JOINT rCarpal2
                {
                  OFFSET -2.0956 0.66 -0.3894
                  CHANNELS 3 Zrotation Xrotation Yrotation
                  JOINT rRing1
                  {
                    OFFSET -5.0395 -0.09 2.4971
                    CHANNELS 3 Zrotation Xrotation Yrotation
                    JOINT rRing2
                    {
                      OFFSET -3.7921 -1.552 1.4806
                      CHANNELS 3 Zrotation Xrotation Yrotation
                      JOINT rRing2_End
                      {
                        OFFSET -1.4655 -1.808 0.9609
                        CHANNELS 3 Zrotation Xrotation Yrotation
                        End Site
                        {
                          OFFSET -0.0147 -0.0181 0.0096
                        }
                      }
                    }
                  }
                  JOINT rPinky1
                  {
                    OFFSET -4.9141 -1.269 0.3592
                    CHANNELS 3 Zrotation Xrotation Yrotation
                    JOINT rPinky2
                    {
                      OFFSET -3.1477 -1.685 0.8462
                      CHANNELS 3 Zrotation Xrotation Yrotation
                      JOINT rPinky2_End
                      {
                        OFFSET -0.8055 -1.585 0.7955
                        CHANNELS 3 Zrotation Xrotation Yrotation
                        End Site
                        {
                          OFFSET -0.0081 -0.0158 0.008
                        }
                      }
                    }
                  }
                }
              }
            }
          }
        }
      }
    }
  }
  JOINT lThigh
  {
    OFFSET 8.367 -8.2066 0.5982
    CHANNELS 3 Zrotation Xrotation Yrotation
    JOINT lShin
    {
      OFFSET 2.1923 -43.463 -0.4932
      CHANNELS 3 Zrotation Xrotation Yrotation
      JOINT lFoot
      {
        OFFSET 0.7333 -45.8593 -2.6451
        CHANNELS 3 Zrotation Xrotation Yrotation
        End Site
        {
          OFFSET 2.6618 -4.2699 12.3931
        }
      }
    }
  }
  JOINT rThigh
  {
    OFFSET -8.367 -8.2066 0.5982
    CHANNELS 3 Zrotation Xrotation Yrotation
    JOINT rShin
    {
      OFFSET -2.1923 -43.463 -0.4931
      CHANNELS 3 Zrotation Xrotation Yrotation
      JOINT rFoot
      {
        OFFSET -0.7333 -45.8593 -2.6451
        CHANNELS 3 Zrotation Xrotation Yrotation
        End Site
        {
          OFFSET -2.6618 -4.2699 12.3931
        }
      }
    }
  }
}
MOTION
Frames:	4
Frame Time:	0.0333333
0 91.7903 2.51682 0 0 -0 0 0 -0 0 0 -0 0 0 -0 0 0 -0.00657023 0 0 -0 0 0 -0 1.66051 0.0835086 5.75766 -0.0175111 0.895433 15.7816 7.95139e-016 -1.98785e-016 -0 5.46658e-016 -3.97569e-016 -0 5.96354e-016 0 -0 3.97569e-016 1.98785e-016 9.54166e-015 1.49089e-016 -3.97569e-016 -0 6.4605e-016 0 3.18055e-015 5.96354e-016 0 3.18055e-015 8.94531e-016 -1.98785e-016 6.36111e-015 6.4605e-016 0 3.18055e-015 5.96354e-016 0 3.18055e-015 8.94531e-016 -1.98785e-016 6.36111e-015 1.49089e-016 -3.97569e-016 -0 6.4605e-016 0 3.18055e-015 5.96354e-016 0 3.18055e-015 8.94531e-016 -1.98785e-016 6.36111e-015 6.4605e-016 0 3.18055e-015 5.96354e-016 0 3.18055e-015 8.94531e-016 -1.98785e-016 6.36111e-015 0 0 -0 -1.4496 0.0636048 -5.0245 -1.74811 1.20616 -16.8394 -1.19271e-015 1.98785e-016 -3.18055e-015 -3.97569e-016 1.98785e-016 -3.18055e-015 -2.98177e-016 1.98785e-016 -3.18055e-015 -2.98177e-016 3.97569e-016 -0 4.96962e-016 0 -6.36111e-015 -9.93923e-017 3.97569e-016 -0 -8.94531e-016 5.96354e-016 -0 -3.97569e-016 3.97569e-016 -0 -9.93923e-017 3.97569e-016 -0 -8.94531e-016 5.96354e-016 -0 -3.97569e-016 3.97569e-016 -0 4.96962e-016 0 -6.36111e-015 -9.93923e-017 3.97569e-016 -0 -8.94531e-016 5.96354e-016 -0 -3.97569e-016 3.97569e-016 -0 -9.93923e-017 3.97569e-016 -0 -8.94531e-016 5.96354e-016 -0 -3.97569e-016 3.97569e-016 -0 -4.66111 -0.998717 0.12318 0.00986924 1.54847 0.176523 4.65186 -0.572283 -0.254274 4.66111 -0.998765 -0.123176 -0.00986867 1.54869 -0.176537 -4.65186 -0.572453 0.25427 
-0.497343 83.4294 6.32275 0 8.99857 -0 -0.625488 -1.37149 -0.247489 -1.25744 -2.74018 -0.510164 -1.25744 -2.74019 -0.510165 0.110189 0.14856 -0.0065805 -1.16956e-006 0.176601 -2.286e-007 3.29637 10.3678 -3.47347 -51.313 -1.61959 -9.02029 -16.3169 30.2797 -56.6042 -7.45006 4.71919 9.30795 1.76556e-031 -3.18055e-015 3.18055e-015 -6.36111e-015 3.18055e-015 -3.18055e-015 -4.3596e-007 5.08107e-007 5.21607e-007 6.36111e-015 -3.18055e-015 3.18055e-015 -3.18055e-015 0 1.59028e-015 -2.64834e-031 -3.18055e-015 -4.77083e-015 -4.3596e-007 5.08107e-007 5.21607e-007 -3.18055e-015 0 1.59028e-015 -2.64834e-031 -3.18055e-015 -4.77083e-015 -4.3596e-007 5.08107e-007 5.21607e-007 6.36111e-015 -3.18055e-015 3.18055e-015 -3.18055e-015 0 1.59028e-015 -2.64834e-031 -3.18055e-015 -4.77083e-015 -4.3596e-007 5.08107e-007 5.21607e-007 -3.18055e-015 0 1.59028e-015 -2.64834e-031 -3.18055e-015 -4.77083e-015 -4.3596e-007 5.08107e-007 5.21607e-007 -3.63069 9.99333 2.98176 51.2609 -1.70485 9.88132 15.5403 28.2523 55.0659 8.89041 5.71494 -8.30185 -9.54166e-015 3.18055e-015 -1.59028e-015 -6.36111e-015 6.36111e-015 -3.18055e-015 6.36111e-015 6.36111e-015 -1.59028e-015 -6.36111e-015 0 -0 -6.36111e-015 9.54166e-015 -1.59028e-015 -9.54166e-015 1.90833e-014 -6.36111e-015 -3.18055e-015 6.36111e-015 -3.18055e-015 -6.36111e-015 9.54166e-015 -1.59028e-015 -9.54166e-015 1.90833e-014 -6.36111e-015 -3.18055e-015 6.36111e-015 -3.18055e-015 -6.36111e-015 0 -0 -6.36111e-015 9.54166e-015 -1.59028e-015 -9.54166e-015 1.90833e-014 -6.36111e-015 -3.18055e-015 6.36111e-015 -3.18055e-015 -6.36111e-015 9.54166e-015 -1.59028e-015 -9.54166e-015 1.90833e-014 -6.36111e-015 -3.18055e-015 6.36111e-015 -3.18055e-015 19.4327 -43.962 36.546 135.858 51.6199 -133.981 -11.1652 40.8411 -10.0187 -23.2245 -45.4723 -37.8374 -135.49 51.8729 133.723 13.3329 39.8396 10.0967 
-0.497647 83.4581 6.67004 0 7.83739 -0 -0.628441 -0.985901 -0.244241 -1.26136 -1.96904 -0.499395 -1.26136 -1.96904 -0.499395 0.144806 0.194977 -0.00654065 1.14526e-009 0.231433 7.09596e-008 3.4689 9.52142 -3.69316 -51.313 -1.6196 -9.02029 -16.2754 30.1081 -56.1669 -7.50295 4.45235 9.04521 3.18055e-015 0 -1.59028e-015 -1.76556e-031 -3.18055e-015 -3.18055e-015 -3.18055e-015 -3.18055e-015 1.59028e-015 3.18055e-015 0 -1.59028e-015 3.18055e-015 -3.18055e-015 -0 0 0 -1.59028e-015 -0 0 1.59028e-015 3.18055e-015 -3.18055e-015 -0 0 0 -1.59028e-015 -0 0 1.59028e-015 3.18055e-015 0 -1.59028e-015 3.18055e-015 -3.18055e-015 -0 0 0 -1.59028e-015 -0 0 1.59028e-015 3.18055e-015 -3.18055e-015 -0 0 0 -1.59028e-015 -0 0 1.59028e-015 -3.79541 9.15795 3.2268 51.2609 -1.70485 9.88133 15.4858 28.099 54.6563 8.89949 5.4295 -8.07934 -6.36111e-015 1.27222e-014 -3.18055e-015 -8.44868e-007 -1.10277e-006 9.68898e-007 -0 -9.54166e-015 -0 7.94503e-031 9.54166e-015 -4.77083e-015 -5.29669e-031 6.36111e-015 4.77083e-015 -8.44868e-007 -1.10277e-006 9.68898e-007 -3.18055e-015 -6.36111e-015 -1.59028e-015 -5.29669e-031 6.36111e-015 4.77083e-015 -8.44868e-007 -1.10277e-006 9.68898e-007 -3.18055e-015 -6.36111e-015 -1.59028e-015 7.94503e-031 9.54166e-015 -4.77083e-015 -5.29669e-031 6.36111e-015 4.77083e-015 -8.44868e-007 -1.10277e-006 9.68898e-007 -3.18055e-015 -6.36111e-015 -1.59028e-015 -5.29669e-031 6.36111e-015 4.77083e-015 -8.44868e-007 -1.10277e-006 9.68898e-007 -3.18055e-015 -6.36111e-015 -1.59028e-015 19.6229 -42.1134 36.4394 135.341 51.9396 -133.656 -10.5161 40.6539 -10.445 -23.3735 -43.6453 -37.6747 -134.994 52.1748 133.414 12.6376 39.6582 10.5611 
-0.498068 83.4844 7.01628 0 6.67428 -0 -0.631104 -0.595248 -0.240826 -1.2648 -1.1878 -0.488235 -1.2648 -1.1878 -0.488235 0.179146 0.240678 -0.00661875 -4.65709e-009 0.286269 7.99656e-008 3.6376 8.67319 -3.91004 -51.313 -1.6196 -9.02029 -16.2325 29.9368 -55.73 -7.55708 4.18567 8.78226 -3.18055e-015 0 9.54166e-015 -8.67117e-007 1.01861e-006 1.04461e-006 -7.06225e-031 -6.36111e-015 -6.36111e-015 -3.18055e-015 0 9.54166e-015 -7.94503e-031 9.54166e-015 4.77083e-015 -8.67117e-007 1.01861e-006 1.04461e-006 -3.18055e-015 -3.18055e-015 -6.36111e-015 -7.94503e-031 9.54166e-015 4.77083e-015 -8.67117e-007 1.01861e-006 1.04461e-006 -3.18055e-015 -3.18055e-015 -6.36111e-015 -3.18055e-015 0 9.54166e-015 -7.94503e-031 9.54166e-015 4.77083e-015 -8.67117e-007 1.01861e-006 1.04461e-006 -3.18055e-015 -3.18055e-015 -6.36111e-015 -7.94503e-031 9.54166e-015 4.77083e-015 -8.67117e-007 1.01861e-006 1.04461e-006 -3.18055e-015 -3.18055e-015 -6.36111e-015 -3.95659 8.32068 3.46893 51.2609 -1.70485 9.88133 15.43 27.946 54.247 8.90967 5.14403 -7.85686 2.08778e-006 9.63302e-007 5.59638e-006 -3.18055e-015 -3.18055e-015 -4.77083e-015 -2.92996e-006 -2.06765e-006 -4.62712e-006 3.18055e-015 0 3.18055e-015 2.08778e-006 9.63302e-007 5.59638e-006 0 0 -0 -2.92996e-006 -2.06765e-006 -4.62712e-006 2.08778e-006 9.63302e-007 5.59638e-006 0 0 -0 -2.92996e-006 -2.06765e-006 -4.62712e-006 3.18055e-015 0 3.18055e-015 2.08778e-006 9.63302e-007 5.59638e-006 0 0 -0 -2.92996e-006 -2.06765e-006 -4.62712e-006 2.08778e-006 9.63302e-007 5.59638e-006 0 0 -0 -2.92996e-006 -2.06765e-006 -4.62712e-006 19.8117 -40.2593 36.3255 134.816 52.2573 -133.324 -9.87246 40.4648 -10.8668 -23.5248 -41.8126 -37.5082 -134.491 52.4749 133.098 11.9475 39.4741 11.0211 
